<svg xmlns="http://www.w3.org/2000/svg" viewBox="0 0 100 100">
  <defs>
    <linearGradient id="grad1" x1="0%" y1="0%" x2="100%" y2="100%">
      <stop offset="0%" style="stop-color:#8B5CF6;stop-opacity:1" />
      <stop offset="100%" style="stop-color:#D946EF;stop-opacity:1" />
    </linearGradient>
    <linearGradient id="grad2" x1="0%" y1="0%" x2="100%" y2="100%">
      <stop offset="0%" style="stop-color:#F59E0B;stop-opacity:1" />
      <stop offset="100%" style="stop-color:#EF4444;stop-opacity:1" />
    </linearGradient>
  </defs>
  
  <!-- Background circle -->
  <circle cx="50" cy="50" r="48" fill="url(#grad1)"/>
  
  <!-- Document icon (stylized scroll/archive) -->
  <rect x="25" y="20" width="50" height="60" rx="4" fill="white" opacity="0.95"/>
  
  <!-- Document lines (representing text) -->
  <rect x="32" y="30" width="36" height="4" rx="2" fill="#8B5CF6" opacity="0.6"/>
  <rect x="32" y="40" width="30" height="4" rx="2" fill="#8B5CF6" opacity="0.6"/>
  <rect x="32" y="50" width="36" height="4" rx="2" fill="#8B5CF6" opacity="0.6"/>
  <rect x="32" y="60" width="24" height="4" rx="2" fill="#8B5CF6" opacity="0.6"/>
  
  <!-- Resurrection spark/glow effect -->
  <circle cx="65" cy="25" r="12" fill="url(#grad2)"/>
  <path d="M65 18 L67 23 L72 23 L68 27 L70 32 L65 28 L60 32 L62 27 L58 23 L63 23 Z" fill="white"/>
  
  <!-- "N" letter hint for Nhaka -->
  <text x="50" y="78" font-family="Arial, sans-serif" font-size="12" font-weight="bold" fill="#8B5CF6" text-anchor="middle">N</text>
</svg>
